<?xml version="1.0" standalone="no"?>
<!DOCTYPE svg PUBLIC "-//W3C//DTD SVG 20010904//EN"
 "http://www.w3.org/TR/2001/REC-SVG-20010904/DTD/svg10.dtd">
<svg version="1.0" xmlns="http://www.w3.org/2000/svg"
 viewBox="100 420 870 200"
 preserveAspectRatio="xMidYMid meet">
<metadata>
Created by potrace 1.16, written by Peter Selinger 2001-2019
</metadata>
<g fill="white" stroke="none" transform="translate(0.000000,1024.000000) scale(0.100000,-0.100000)">
<path d="M2131 6009 c-73 -60 -269 -147 -377 -169 -403 -80 -631 -294 -651
-610 -3 -48 0 -109 6 -140 23 -112 93 -225 171 -276 l39 -26 -6 -107 c-4 -65
-1 -134 6 -176 13 -73 53 -175 69 -175 5 0 32 15 58 33 56 37 57 41 20 142
-49 134 -29 309 53 482 57 119 112 194 225 312 l101 104 -45 -7 c-99 -15 -214
-87 -296 -187 -43 -51 -132 -215 -147 -269 l-8 -25 -34 38 c-66 75 -80 118
-80 248 0 113 1 117 37 190 45 92 93 148 168 199 78 53 136 75 320 121 103 26
186 54 247 83 l91 44 16 -61 c108 -432 -56 -825 -383 -921 -30 -9 -76 -16
-102 -16 -26 0 -51 -4 -54 -10 -3 -5 -9 -32 -12 -59 l-6 -50 34 -6 c43 -8 154
10 222 35 213 80 363 259 433 515 22 81 30 320 14 427 -11 80 -67 270 -93 315
-12 21 -12 21 -36 2z"/>
<path d="M2540 5140 l0 -430 75 0 75 0 2 304 3 304 195 -304 195 -303 80 -1
80 0 -2 427 -3 428 -72 3 -73 3 3 -311 c2 -282 -2 -345 -22 -295 -10 26 -244
390 -321 499 l-76 106 -69 0 -70 0 0 -430z"/>
<path d="M6770 5140 l0 -430 75 0 75 0 0 175 0 175 175 0 175 0 0 70 0 70
-175 0 -175 0 0 115 0 115 200 0 200 0 0 70 0 70 -275 0 -275 0 0 -430z"/>
<path d="M7395 5140 l0 -430 78 0 77 0 0 430 -1 430 -77 0 -77 0 0 -430z"/>
<path d="M4568 5423 l-3 -88 -62 -3 -63 -3 0 -59 0 -60 65 0 65 0 0 -183 c0
-170 2 -186 23 -227 31 -63 88 -100 165 -107 33 -3 72 -3 86 1 25 6 26 10 26
70 l0 64 -51 -1 c-44 -1 -55 3 -75 27 -23 26 -24 33 -24 192 l0 164 75 0 75 0
0 60 0 59 -77 3 -76 3 2 88 2 87 -75 0 -75 0 -3 -87z"/>
<path d="M4285 5343 c-47 -10 -78 -28 -105 -62 l-30 -36 0 43 0 42 -70 0 -70
0 0 -310 0 -310 74 0 74 0 3 193 c4 171 6 196 24 227 29 49 78 72 138 66 l47
-5 0 79 0 80 -32 -1 c-18 -1 -42 -3 -53 -6z"/>
<path d="M5905 5341 c-44 -11 -70 -27 -99 -62 l-26 -31 0 41 0 41 -70 0 -70 0
0 -310 0 -310 75 0 75 0 0 188 c0 175 2 191 23 232 26 54 68 73 140 65 l47 -6
0 81 0 80 -32 -1 c-18 -1 -46 -4 -63 -8z"/>
<path d="M6263 5336 c-88 -29 -145 -78 -190 -166 -24 -49 -28 -66 -28 -150 0
-79 4 -104 24 -147 81 -180 326 -240 498 -121 46 31 98 98 85 109 -4 4 -31 14
-61 22 l-55 16 -37 -34 c-38 -34 -92 -55 -139 -55 -32 0 -100 32 -122 56 -22
25 -49 90 -41 98 4 3 114 6 246 6 l240 0 -6 74 c-14 185 -122 295 -296 303
-46 2 -93 -3 -118 -11z m186 -134 c36 -26 60 -62 67 -99 l7 -33 -162 0 c-156
0 -161 1 -161 20 0 48 54 114 106 130 40 13 114 3 143 -18z"/>
<path d="M7855 5337 c-86 -29 -153 -85 -193 -161 -37 -73 -43 -207 -12 -288
26 -69 86 -134 155 -168 69 -34 216 -36 286 -4 115 54 183 162 183 294 1 47
-6 94 -17 128 -25 71 -101 153 -169 182 -64 28 -175 36 -233 17z m152 -128
c70 -26 113 -99 113 -190 0 -112 -55 -186 -145 -197 -59 -6 -88 3 -129 39
-102 89 -81 286 37 340 48 21 83 24 124 8z"/>
<path d="M3352 5092 c3 -232 4 -239 29 -287 64 -125 249 -153 349 -53 l30 30
0 -36 0 -36 75 0 75 0 0 310 0 310 -75 0 -75 0 0 -206 c0 -237 -6 -258 -80
-288 -50 -20 -83 -20 -120 -1 -55 28 -60 53 -60 285 l0 210 -76 0 -75 0 3
-238z"/>
<path d="M4972 5098 c3 -196 6 -239 21 -273 35 -78 100 -123 192 -132 66 -7
115 9 162 53 19 19 37 34 39 34 2 0 4 -16 4 -35 l0 -35 75 0 74 0 0 310 0 310
-74 0 -74 0 -3 -209 c-3 -193 -5 -212 -24 -238 -45 -62 -146 -81 -196 -37 -42
38 -48 72 -48 284 l0 200 -76 0 -76 0 4 -232z"/>
<path d="M8280 5323 c0 -10 181 -607 186 -612 4 -4 147 -2 150 2 1 1 31 91 67
200 36 110 67 195 70 190 2 -4 32 -94 66 -200 l61 -191 75 -4 76 -3 19 65 c11
36 53 176 93 313 l74 247 -72 0 -72 0 -47 -177 c-67 -250 -72 -268 -78 -257
-3 5 -34 105 -68 222 l-64 212 -66 0 -66 0 -63 -212 c-35 -117 -67 -219 -71
-226 -3 -7 -33 88 -65 212 l-58 226 -73 0 c-41 0 -74 -3 -74 -7z"/>
</g>
</svg>
